<svg width="46" height="46" viewBox="0 0 46 46" fill="none" xmlns="http://www.w3.org/2000/svg">
<path d="M23 36.417C26.1756 36.417 28.75 33.8426 28.75 30.667C28.75 27.4914 26.1756 24.917 23 24.917C19.8244 24.917 17.25 27.4914 17.25 30.667C17.25 33.8426 19.8244 36.417 23 36.417Z" stroke="black" stroke-width="4"/>
<path d="M17.4666 30.5903L15.4732 32.5837L12.6404 35.2996C12.0194 35.8957 11.7089 36.1927 11.6016 36.4457C11.4809 36.7148 11.4651 37.0193 11.5573 37.2994C11.6495 37.5795 11.843 37.8151 12.0999 37.9599C12.3337 38.0922 12.7573 38.1324 13.6007 38.2167C14.076 38.2627 14.3156 38.2857 14.5149 38.3567C14.7317 38.4315 14.9297 38.5526 15.0951 38.7114C15.2606 38.8703 15.3896 39.0631 15.4732 39.2767C15.548 39.4683 15.5729 39.6964 15.6208 40.1545C15.7071 40.9633 15.7512 41.3678 15.8892 41.592C16.2035 42.1038 16.8686 42.305 17.4685 42.0712C17.7311 41.9658 18.0416 41.6687 18.6626 41.0745L23 36.9153L27.3374 41.0745C27.9584 41.6687 28.2689 41.9658 28.5315 42.0712C29.1314 42.305 29.7965 42.1038 30.1108 41.592C30.2488 41.3678 30.2929 40.9633 30.3792 40.1545C30.4271 39.6964 30.452 39.4683 30.5268 39.2767C30.6105 39.0632 30.7396 38.8704 30.905 38.7116C31.0705 38.5527 31.2684 38.4317 31.4851 38.3567C31.6863 38.2857 31.924 38.2627 32.3993 38.2167C33.2427 38.1343 33.6663 38.0922 33.9001 37.9599C34.157 37.8151 34.3505 37.5795 34.4427 37.2994C34.5349 37.0193 34.5191 36.7148 34.3984 36.4457C34.2911 36.1927 33.9806 35.8957 33.3596 35.2996L30.5248 32.5837L28.75 30.8069" stroke="black" stroke-width="4"/>
<path d="M33.1967 34.4925C36.9763 34.4522 39.0847 34.2146 40.4819 32.8154C42.1667 31.1326 42.1667 28.4205 42.1667 23.0002V17.2502M13.4167 34.4963C9.24793 34.4733 6.99009 34.2893 5.51809 32.8154C3.83334 31.1326 3.83334 28.4205 3.83334 23.0002V15.3335C3.83334 9.91316 3.83334 7.20108 5.51809 5.51825C7.20093 3.8335 9.91301 3.8335 15.3333 3.8335H30.6667C36.087 3.8335 38.7991 3.8335 40.4819 5.51825C41.4211 6.45741 41.837 7.71475 42.021 9.5835M17.25 11.5002H28.75M13.4167 18.2085H17.25M32.5833 18.2085H23.9583" stroke="black" stroke-width="4" stroke-linecap="round"/>
</svg>
