<svg width="54" height="54" viewBox="0 0 54 54" fill="none" xmlns="http://www.w3.org/2000/svg">
<path fill-rule="evenodd" clip-rule="evenodd" d="M15.435 2.8128H15.7208C16.5105 2.8128 17.019 2.8128 17.5163 2.8578C19.6574 3.05796 21.6884 3.89947 23.3438 5.27235C23.7263 5.59189 24.0863 5.95193 24.6465 6.51L25.9425 7.80841C27.846 9.7099 28.5773 10.421 29.4233 10.8913C29.9138 11.1636 30.4335 11.3796 30.9735 11.5349C31.9028 11.7982 32.922 11.8139 35.613 11.8139H36.5693C39.4335 11.8139 41.7443 11.8139 43.569 12.0434C45.4613 12.282 47.07 12.7905 48.393 13.9787C48.6135 14.1767 48.825 14.3882 49.023 14.6088C50.2133 15.9319 50.7195 17.5409 50.958 19.4333C51.1875 21.2606 51.1875 23.5694 51.1875 26.434V31.6321C51.1875 35.7659 51.1875 39.0423 50.8433 41.6053C50.4878 44.2427 49.7408 46.3782 48.0578 48.0636C46.3725 49.7468 44.2373 50.4939 41.6003 50.8495C39.0353 51.1938 35.7615 51.1938 31.626 51.1938H22.374C18.2385 51.1938 14.9625 51.1938 12.3998 50.8495C9.76275 50.4939 7.6275 49.7468 5.94225 48.0636C4.25925 46.3782 3.51225 44.2427 3.15675 41.6053C2.8125 39.04 2.8125 35.7659 2.8125 31.6298V15.4369C2.8125 13.6434 2.8125 12.5047 2.997 11.5214C3.39489 9.40751 4.42122 7.46289 5.94181 5.94171C7.4624 4.42053 9.40651 3.39357 11.52 2.99507C12.5055 2.81055 13.644 2.81055 15.435 2.81055M15.6375 6.18596C13.5743 6.18596 12.7778 6.19271 12.1433 6.31198C10.6984 6.58515 9.36939 7.28764 8.3298 8.32775C7.29022 9.36787 6.58833 10.6973 6.31575 12.1424C6.19425 12.777 6.1875 13.5736 6.1875 15.6371V31.5038C6.1875 35.7951 6.192 38.8442 6.5025 41.1575C6.80625 43.4191 7.37775 44.7242 8.3295 45.6761C9.28125 46.6279 10.5863 47.1995 12.8498 47.5033C15.1628 47.8138 18.2093 47.8183 22.5 47.8183H31.5C35.7908 47.8183 38.8395 47.8138 41.1525 47.5033C43.4138 47.1995 44.7188 46.6279 45.6705 45.6761C46.6223 44.7242 47.1938 43.419 47.4975 41.1553C47.808 38.8442 47.8125 35.7951 47.8125 31.5038V26.5487C47.8125 23.5424 47.8103 21.4473 47.61 19.8541C47.4143 18.3037 47.0565 17.4689 46.5143 16.8658C46.395 16.7332 46.2689 16.607 46.1363 16.4877C45.5333 15.9454 44.6963 15.5876 43.1483 15.3918C41.5575 15.1916 39.4605 15.1893 36.4545 15.1893H35.3655C33.0075 15.1893 31.4865 15.1893 30.0488 14.7798C29.2613 14.5547 28.4985 14.2397 27.7808 13.8414C26.4758 13.1123 25.4003 12.0389 23.7308 10.3692L23.5575 10.1937L22.32 8.95605C21.9586 8.57831 21.581 8.21642 21.1883 7.87142C20.0563 6.93267 18.6676 6.35705 17.2035 6.21972C16.6822 6.18658 16.1597 6.17382 15.6375 6.18596ZM20.8125 31.5038C20.8125 31.0562 20.9903 30.627 21.3068 30.3104C21.6232 29.9939 22.0524 29.8161 22.5 29.8161H31.5C31.9476 29.8161 32.3768 29.9939 32.6932 30.3104C33.0097 30.627 33.1875 31.0562 33.1875 31.5038C33.1875 31.9514 33.0097 32.3807 32.6932 32.6972C32.3768 33.0137 31.9476 33.1915 31.5 33.1915H22.5C22.0524 33.1915 21.6232 33.0137 21.3068 32.6972C20.9903 32.3807 20.8125 31.9514 20.8125 31.5038Z" fill="black"/>
</svg>
