<svg width="40" height="40" viewBox="0 0 40 40" fill="none" xmlns="http://www.w3.org/2000/svg">
<path d="M23.3333 12.9167C23.0018 12.9167 22.6839 12.7851 22.4494 12.5506C22.215 12.3162 22.0833 11.9983 22.0833 11.6667C22.0833 11.3352 22.215 11.0173 22.4494 10.7829C22.6839 10.5484 23.0018 10.4167 23.3333 10.4167H28.3333C28.6649 10.4167 28.9828 10.5484 29.2172 10.7829C29.4516 11.0173 29.5833 11.3352 29.5833 11.6667V16.6667C29.5833 16.9983 29.4516 17.3162 29.2172 17.5506C28.9828 17.7851 28.6649 17.9167 28.3333 17.9167C28.0018 17.9167 27.6839 17.7851 27.4494 17.5506C27.215 17.3162 27.0833 16.9983 27.0833 16.6667V14.6834L23.3833 18.3834C23.2689 18.5062 23.1309 18.6047 22.9776 18.673C22.8242 18.7414 22.6587 18.7781 22.4909 18.7811C22.323 18.784 22.1563 18.7532 22.0007 18.6903C21.845 18.6274 21.7036 18.5338 21.5849 18.4151C21.4662 18.2964 21.3727 18.1551 21.3098 17.9994C21.2469 17.8438 21.2161 17.677 21.219 17.5092C21.222 17.3414 21.2587 17.1759 21.327 17.0225C21.3953 16.8692 21.4939 16.7312 21.6167 16.6167L25.3167 12.9167H23.3333ZM18.3833 21.6167C18.6174 21.8511 18.7489 22.1688 18.7489 22.5001C18.7489 22.8313 18.6174 23.149 18.3833 23.3834L14.6833 27.0834H16.6667C16.9982 27.0834 17.3161 27.2151 17.5505 27.4495C17.785 27.684 17.9167 28.0019 17.9167 28.3334C17.9167 28.6649 17.785 28.9829 17.5505 29.2173C17.3161 29.4517 16.9982 29.5834 16.6667 29.5834H11.6667C11.3351 29.5834 11.0172 29.4517 10.7828 29.2173C10.5484 28.9829 10.4167 28.6649 10.4167 28.3334V23.3334C10.4167 23.0019 10.5484 22.684 10.7828 22.4495C11.0172 22.2151 11.3351 22.0834 11.6667 22.0834C11.9982 22.0834 12.3161 22.2151 12.5505 22.4495C12.785 22.684 12.9167 23.0019 12.9167 23.3334V25.3167L16.6167 21.6167C16.851 21.3827 17.1687 21.2512 17.5 21.2512C17.8312 21.2512 18.149 21.3827 18.3833 21.6167ZM16.6667 12.9167C16.9982 12.9167 17.3161 12.7851 17.5505 12.5506C17.785 12.3162 17.9167 11.9983 17.9167 11.6667C17.9167 11.3352 17.785 11.0173 17.5505 10.7829C17.3161 10.5484 16.9982 10.4167 16.6667 10.4167H11.6667C11.3351 10.4167 11.0172 10.5484 10.7828 10.7829C10.5484 11.0173 10.4167 11.3352 10.4167 11.6667V16.6667C10.4167 16.9983 10.5484 17.3162 10.7828 17.5506C11.0172 17.7851 11.3351 17.9167 11.6667 17.9167C11.9982 17.9167 12.3161 17.7851 12.5505 17.5506C12.785 17.3162 12.9167 16.9983 12.9167 16.6667V14.6834L16.6167 18.3834C16.7311 18.5062 16.8691 18.6047 17.0224 18.673C17.1758 18.7414 17.3413 18.7781 17.5091 18.7811C17.677 18.784 17.8437 18.7532 17.9993 18.6903C18.155 18.6274 18.2964 18.5338 18.4151 18.4151C18.5338 18.2964 18.6273 18.1551 18.6902 17.9994C18.7531 17.8438 18.7839 17.677 18.781 17.5092C18.778 17.3414 18.7413 17.1759 18.673 17.0225C18.6046 16.8692 18.5061 16.7312 18.3833 16.6167L14.6833 12.9167H16.6667ZM21.6167 21.6167C21.3826 21.8511 21.2511 22.1688 21.2511 22.5001C21.2511 22.8313 21.3826 23.149 21.6167 23.3834L25.3167 27.0834H23.3333C23.0018 27.0834 22.6839 27.2151 22.4494 27.4495C22.215 27.684 22.0833 28.0019 22.0833 28.3334C22.0833 28.6649 22.215 28.9829 22.4494 29.2173C22.6839 29.4517 23.0018 29.5834 23.3333 29.5834H28.3333C28.6649 29.5834 28.9828 29.4517 29.2172 29.2173C29.4516 28.9829 29.5833 28.6649 29.5833 28.3334V23.3334C29.5833 23.0019 29.4516 22.684 29.2172 22.4495C28.9828 22.2151 28.6649 22.0834 28.3333 22.0834C28.0018 22.0834 27.6839 22.2151 27.4494 22.4495C27.215 22.684 27.0833 23.0019 27.0833 23.3334V25.3167L23.3833 21.6167C23.149 21.3827 22.8312 21.2512 22.5 21.2512C22.1687 21.2512 21.851 21.3827 21.6167 21.6167Z" fill="black"/>
<path fill-rule="evenodd" clip-rule="evenodd" d="M19.905 2.08325C16.0567 2.08325 13.0417 2.08325 10.6883 2.39992C8.28167 2.72325 6.38167 3.39992 4.89 4.88992C3.39833 6.38159 2.72333 8.28159 2.4 10.6899C2.08333 13.0416 2.08333 16.0566 2.08333 19.9049V20.0949C2.08333 23.9433 2.08333 26.9583 2.4 29.3116C2.72333 31.7183 3.4 33.6183 4.89 35.1099C6.38167 36.6016 8.28167 37.2766 10.69 37.5999C13.0417 37.9166 16.0567 37.9166 19.905 37.9166H20.095C23.9433 37.9166 26.9583 37.9166 29.3117 37.5999C31.7183 37.2766 33.6183 36.5999 35.11 35.1099C36.6017 33.6183 37.2767 31.7183 37.6 29.3099C37.9167 26.9583 37.9167 23.9433 37.9167 20.0949V19.9049C37.9167 16.0566 37.9167 13.0416 37.6 10.6883C37.2767 8.28159 36.6 6.38159 35.11 4.88992C33.6183 3.39825 31.7183 2.72325 29.31 2.39992C26.9583 2.08325 23.9433 2.08325 20.095 2.08325H19.905ZM6.65833 6.65825C7.60833 5.70825 8.89167 5.16325 11.0233 4.87659C13.19 4.58659 16.0367 4.58325 20 4.58325C23.9633 4.58325 26.81 4.58659 28.9767 4.87659C31.1083 5.16325 32.3933 5.70992 33.3433 6.65825C34.2917 7.60825 34.8367 8.89159 35.1233 11.0233C35.4133 13.1899 35.4167 16.0366 35.4167 19.9999C35.4167 23.9633 35.4133 26.8099 35.1233 28.9766C34.8367 31.1083 34.29 32.3933 33.3417 33.3433C32.3917 34.2916 31.1083 34.8366 28.9767 35.1233C26.81 35.4133 23.9633 35.4166 20 35.4166C16.0367 35.4166 13.19 35.4133 11.0233 35.1233C8.89167 34.8366 7.60667 34.2899 6.65667 33.3416C5.70833 32.3916 5.16333 31.1083 4.87667 28.9766C4.58667 26.8099 4.58333 23.9633 4.58333 19.9999C4.58333 16.0366 4.58667 13.1899 4.87667 11.0233C5.16333 8.89159 5.71 7.60825 6.65833 6.65825Z" fill="black"/>
</svg>
