<svg width="60" height="60" viewBox="0 0 60 60" fill="none" xmlns="http://www.w3.org/2000/svg">
<path d="M52.2 7.7475C50.3675 5.915 48.1625 5 45.5825 5H14.365C11.785 5 9.58 5.915 7.7475 7.7475C5.915 9.58 5 11.785 5 14.365V45.5825C5 48.1625 5.915 50.3675 7.7475 52.2C9.58 54.0325 11.785 54.9475 14.365 54.9475H21.65C22.125 54.9475 22.4825 54.93 22.7225 54.8975C23.0017 54.8415 23.2538 54.6926 23.4375 54.475C23.675 54.225 23.795 53.8625 23.795 53.3875L23.7775 51.175C23.7675 49.765 23.7625 48.65 23.7625 47.825L23.0125 47.955C22.5375 48.0425 21.9375 48.08 21.21 48.07C20.4517 48.056 19.6959 47.9799 18.95 47.8425C18.156 47.6959 17.4086 47.3616 16.77 46.8675C16.1012 46.3616 15.6024 45.664 15.34 44.8675L15.015 44.1175C14.7411 43.5259 14.3969 42.9694 13.99 42.46C13.525 41.8525 13.0525 41.4425 12.575 41.225L12.35 41.0625C12.1931 40.9501 12.0504 40.8192 11.925 40.6725C11.8052 40.5364 11.7066 40.383 11.6325 40.2175C11.5675 40.065 11.6225 39.94 11.795 39.8425C11.97 39.7425 12.2825 39.695 12.74 39.695L13.39 39.795C13.8225 39.88 14.36 40.14 14.9975 40.5725C15.6427 41.0123 16.1816 41.5905 16.575 42.265C17.075 43.1525 17.675 43.83 18.38 44.2975C19.085 44.7625 19.795 44.9975 20.51 44.9975C21.225 44.9975 21.8425 44.9425 22.365 44.835C22.8703 44.7305 23.3613 44.566 23.8275 44.345C24.0225 42.895 24.5525 41.775 25.42 40.995C24.2959 40.8848 23.1819 40.6892 22.0875 40.41C21.0195 40.1166 19.9923 39.6908 19.03 39.1425C18.0231 38.5943 17.1338 37.8536 16.4125 36.9625C15.72 36.095 15.15 34.9575 14.705 33.55C14.2625 32.14 14.04 30.5125 14.04 28.67C14.04 26.0475 14.895 23.815 16.6075 21.97C15.8075 20 15.8825 17.7875 16.835 15.34C17.465 15.1425 18.3975 15.29 19.6325 15.7775C20.8675 16.265 21.7725 16.6825 22.3475 17.0275C22.9225 17.3775 23.3825 17.67 23.73 17.9075C25.7624 17.3419 27.8628 17.0576 29.9725 17.0625C32.12 17.0625 34.2 17.345 36.2175 17.9075L37.4525 17.1275C38.4025 16.5571 39.4045 16.0783 40.445 15.6975C41.595 15.2625 42.47 15.145 43.08 15.34C44.055 17.79 44.14 20 43.3375 21.9725C45.05 23.815 45.9075 26.0475 45.9075 28.6725C45.9075 30.515 45.685 32.1475 45.24 33.565C44.7975 34.985 44.2225 36.1225 43.5175 36.98C42.7835 37.8597 41.8905 38.5933 40.885 39.1425C39.835 39.7275 38.815 40.15 37.8275 40.41C36.7332 40.6901 35.6191 40.8865 34.495 40.9975C35.62 41.9725 36.185 43.51 36.185 45.6125V53.3875C36.185 53.755 36.2375 54.0525 36.3475 54.28C36.3981 54.3896 36.4702 54.4879 36.5595 54.5691C36.6488 54.6503 36.7536 54.7126 36.8675 54.7525C37.1075 54.8375 37.3175 54.8925 37.5025 54.9125C37.6875 54.9375 37.9525 54.945 38.2975 54.945H45.5825C48.1625 54.945 50.3675 54.03 52.2 52.1975C54.03 50.3675 54.9475 48.16 54.9475 45.58V14.365C54.9475 11.785 54.0325 9.58 52.2 7.7475Z" fill="black"/>
</svg>
