<svg width="46" height="46" viewBox="0 0 46 46" fill="none" xmlns="http://www.w3.org/2000/svg">
<path d="M34.5548 37.9754L34.5546 37.9754C33.1087 38.7753 31.2062 39.7403 29.2011 40.5095C27.2242 41.2679 25.0181 41.8874 23 41.8874C20.9819 41.8874 18.7757 41.2679 16.797 40.5095L16.7969 40.5095C14.7919 39.7402 12.8913 38.7753 11.4453 37.9754L11.4452 37.9754C9.18259 36.7214 7.94583 34.3312 7.94583 31.8645V22.0416C7.94583 21.9644 7.95076 21.8856 7.96254 21.8069C7.92204 21.5231 7.95673 21.2335 8.06341 20.967C8.17425 20.6901 8.35861 20.4487 8.59658 20.269C8.83455 20.0892 9.1171 19.9778 9.41374 19.9469C9.71034 19.916 10.0098 19.9666 10.2797 20.0934C10.2797 20.0934 10.2797 20.0934 10.2798 20.0934L19.4452 24.3924L19.4462 24.3929C20.5564 24.9212 21.7705 25.1953 23 25.1953C24.2295 25.1953 25.4436 24.9212 26.5538 24.3929L26.5548 24.3924L39.3793 18.3798C40.0664 18.0576 40.5292 17.2748 40.5292 16.2916C40.5292 15.3084 40.0664 14.5256 39.3792 14.2033L26.5567 8.19076L26.5557 8.19028C25.4455 7.66203 24.2314 7.38794 23.0019 7.38794C21.7724 7.38794 20.5583 7.66203 19.4481 8.19028L19.4471 8.19076L6.6247 14.2033L34.5548 37.9754ZM34.5548 37.9754C36.8174 36.7214 38.0542 34.3312 38.0542 31.8645V22.6192L40.7699 21.3468C40.7699 21.3468 40.7699 21.3468 40.7699 21.3468C42.8755 20.361 43.8042 18.2229 43.8042 16.2916C43.8042 14.36 42.8734 12.2241 40.7699 11.2383L27.9444 5.22419C27.9443 5.22414 27.9442 5.22409 27.9441 5.22404C26.3987 4.49183 24.71 4.11201 23 4.11201C21.29 4.11201 19.6013 4.49183 18.0559 5.22403C18.0558 5.22408 18.0557 5.22414 18.0556 5.22419L5.2319 11.2384L5.23178 11.2384M34.5548 37.9754L5.23178 11.2384M5.23178 11.2384C4.83862 11.4231 4.53493 11.7565 4.38753 12.1651C4.24013 12.5737 4.2611 13.0241 4.44581 13.4173C4.63052 13.8105 4.96385 14.1142 5.37248 14.2616C5.78105 14.4089 6.23144 14.388 6.62457 14.2033L5.23178 11.2384ZM17.9715 37.4527L17.9713 37.4527C16.1585 36.7576 14.4003 35.8692 13.0326 35.1128C11.9137 34.492 11.2208 33.2631 11.2208 31.8664V24.1559L18.0556 27.359C18.0558 27.3591 18.056 27.3592 18.0562 27.3593C19.6017 28.0918 21.2906 28.4718 23.001 28.4718C24.7113 28.4718 26.4003 28.0918 27.9459 27.3592C27.946 27.3591 27.9462 27.3591 27.9463 27.359L34.7792 24.156V31.8664C34.7792 33.2633 34.0881 34.4921 32.9693 35.1128L32.9686 35.1132C31.3772 36.0039 29.7271 36.7857 28.0297 37.453C26.1907 38.1588 24.424 38.6143 23 38.6143C21.5758 38.6143 19.8088 38.1586 17.9715 37.4527Z" fill="black" stroke="black" stroke-width="0.4"/>
<path d="M12.9375 14.7187L12.9374 14.7185C12.774 14.3377 12.4644 14.0377 12.0803 13.8839C11.6959 13.73 11.2662 13.735 10.8855 13.8977L10.8854 13.8977L8.75405 14.81L8.75395 14.8101L8.69031 14.8374C7.65241 15.2827 6.76071 15.6653 6.05859 16.0619C5.29162 16.4929 4.62361 17.0033 4.12003 17.7656L4.1199 17.7657C3.61833 18.528 3.41127 19.3429 3.31804 20.2169C3.22916 21.0363 3.22916 22.025 3.22916 23.1834V23.1896V28.7499C3.22916 29.1643 3.39378 29.5617 3.6868 29.8547C3.97983 30.1478 4.37726 30.3124 4.79166 30.3124C5.20606 30.3124 5.60349 30.1478 5.89651 29.8547C6.18954 29.5617 6.35416 29.1643 6.35416 28.7499V23.2644C6.35416 22.0042 6.35624 21.1823 6.42435 20.5523L6.42435 20.5523C6.48832 19.9596 6.59761 19.6843 6.72828 19.4865L6.72855 19.4861C6.85923 19.2867 7.07066 19.0764 7.58986 18.7849L7.58987 18.7849C8.14235 18.4746 8.89589 18.1498 10.0543 17.6522L12.1145 16.7687C12.1146 16.7687 12.1146 16.7687 12.1146 16.7687C12.4955 16.6059 12.7961 16.2985 12.9504 15.9141C13.1047 15.5297 13.1 15.0997 12.9375 14.7187Z" fill="black" stroke="black" stroke-width="0.25"/>
</svg>
