<svg width="40" height="41" viewBox="0 0 40 41" fill="none" xmlns="http://www.w3.org/2000/svg">
<path d="M21.6667 13.924C21.6667 13.482 21.4911 13.058 21.1785 12.7455C20.866 12.4329 20.442 12.2573 20 12.2573C19.558 12.2573 19.1341 12.4329 18.8215 12.7455C18.5089 13.058 18.3333 13.482 18.3333 13.924C18.3333 14.366 18.5089 14.7899 18.8215 15.1025C19.1341 15.4151 19.558 15.5907 20 15.5907C20.442 15.5907 20.866 15.4151 21.1785 15.1025C21.4911 14.7899 21.6667 14.366 21.6667 13.924ZM20 30.174C20.3315 30.174 20.6495 30.0423 20.8839 29.8079C21.1183 29.5735 21.25 29.2555 21.25 28.924V18.924C21.25 18.5925 21.1183 18.2745 20.8839 18.0401C20.6495 17.8057 20.3315 17.674 20 17.674C19.6685 17.674 19.3505 17.8057 19.1161 18.0401C18.8817 18.2745 18.75 18.5925 18.75 18.924V28.924C18.75 29.614 19.31 30.174 20 30.174Z" fill="black"/>
<path fill-rule="evenodd" clip-rule="evenodd" d="M20.095 2.67383H19.905C16.0567 2.67383 13.0417 2.67383 10.6883 2.99049C8.28167 3.31383 6.38167 3.99049 4.89 5.48049C3.39833 6.97216 2.72333 8.87216 2.4 11.2805C2.08333 13.6322 2.08333 16.6472 2.08333 20.4955V20.6855C2.08333 24.5338 2.08333 27.5488 2.4 29.9022C2.72333 32.3088 3.4 34.2088 4.89 35.7005C6.38167 37.1922 8.28167 37.8672 10.69 38.1905C13.0417 38.5072 16.0567 38.5072 19.905 38.5072H20.095C23.9433 38.5072 26.9583 38.5072 29.3117 38.1905C31.7183 37.8672 33.6183 37.1905 35.11 35.7005C36.6017 34.2088 37.2767 32.3088 37.6 29.9005C37.9167 27.5488 37.9167 24.5338 37.9167 20.6855V20.4955C37.9167 16.6472 37.9167 13.6322 37.6 11.2788C37.2767 8.87216 36.6 6.97216 35.11 5.48049C33.6183 3.98883 31.7183 3.31383 29.31 2.99049C26.9583 2.67383 23.9433 2.67383 20.095 2.67383ZM6.65833 7.24883C7.60833 6.29883 8.89167 5.75383 11.0233 5.46716C13.19 5.17716 16.0367 5.17383 20 5.17383C23.9633 5.17383 26.81 5.17716 28.9767 5.46716C31.1083 5.75383 32.3933 6.30049 33.3433 7.24883C34.2917 8.19883 34.8367 9.48216 35.1233 11.6138C35.4133 13.7805 35.4167 16.6272 35.4167 20.5905C35.4167 24.5538 35.4133 27.4005 35.1233 29.5672C34.8367 31.6988 34.29 32.9838 33.3417 33.9338C32.3917 34.8822 31.1083 35.4272 28.9767 35.7138C26.81 36.0038 23.9633 36.0072 20 36.0072C16.0367 36.0072 13.19 36.0038 11.0233 35.7138C8.89167 35.4272 7.60667 34.8805 6.65667 33.9322C5.70833 32.9822 5.16333 31.6988 4.87667 29.5672C4.58667 27.4005 4.58333 24.5538 4.58333 20.5905C4.58333 16.6272 4.58667 13.7805 4.87667 11.6138C5.16333 9.48216 5.71 8.19883 6.65833 7.24883Z" fill="black"/>
</svg>
