<svg width="66" height="66" viewBox="0 0 66 66" fill="none" xmlns="http://www.w3.org/2000/svg">
<path d="M52.25 8.25C53.7087 8.25 55.1076 8.82946 56.1391 9.86091C57.1705 10.8924 57.75 12.2913 57.75 13.75V52.25C57.75 53.7087 57.1705 55.1076 56.1391 56.1391C55.1076 57.1705 53.7087 57.75 52.25 57.75H13.75C12.2913 57.75 10.8924 57.1705 9.86091 56.1391C8.82946 55.1076 8.25 53.7087 8.25 52.25V13.75C8.25 12.2913 8.82946 10.8924 9.86091 9.86091C10.8924 8.82946 12.2913 8.25 13.75 8.25H52.25ZM50.875 50.875V36.3C50.875 33.9223 49.9305 31.642 48.2492 29.9608C46.5679 28.2795 44.2877 27.335 41.91 27.335C39.5725 27.335 36.85 28.765 35.53 30.91V27.8575H27.8575V50.875H35.53V37.3175C35.53 35.2 37.235 33.4675 39.3525 33.4675C40.3736 33.4675 41.3528 33.8731 42.0749 34.5951C42.7969 35.3172 43.2025 36.2964 43.2025 37.3175V50.875H50.875ZM18.92 23.54C20.1453 23.54 21.3204 23.0533 22.1868 22.1868C23.0533 21.3204 23.54 20.1453 23.54 18.92C23.54 16.3625 21.4775 14.2725 18.92 14.2725C17.6874 14.2725 16.5053 14.7621 15.6337 15.6337C14.7621 16.5053 14.2725 17.6874 14.2725 18.92C14.2725 21.4775 16.3625 23.54 18.92 23.54ZM22.7425 50.875V27.8575H15.125V50.875H22.7425Z" fill="black"/>
</svg>
