<svg width="46" height="46" viewBox="0 0 46 46" fill="none" xmlns="http://www.w3.org/2000/svg">
<path d="M10.4573 23L5.73466 27.8894C4.69966 28.9608 4.18216 29.4975 4.002 29.9518C3.59375 30.9848 3.9445 32.1329 4.83191 32.6773C5.22291 32.9149 5.92633 32.9897 7.33316 33.1392C8.12858 33.2235 8.52533 33.2638 8.85691 33.3922C9.22764 33.5359 9.56275 33.7584 9.83907 34.0443C10.1154 34.3302 10.3263 34.6727 10.4573 35.0482C10.58 35.3932 10.6202 35.8033 10.7027 36.6275C10.8445 38.0842 10.9173 38.8125 11.1473 39.215C11.6725 40.135 12.7822 40.4953 13.7789 40.0737C14.2197 39.8897 14.7372 39.3549 15.7722 38.2816L23 30.797L30.2277 38.2816C31.2627 39.3549 31.7802 39.8897 32.2211 40.0737C33.2177 40.4953 34.3275 40.135 34.8527 39.215C35.0827 38.8125 35.1536 38.0842 35.2973 36.6275C35.3797 35.8033 35.42 35.3932 35.5427 35.0482C35.8187 34.2777 36.3975 33.6778 37.1431 33.3922C37.4747 33.2638 37.8714 33.2235 38.6668 33.1392C40.0737 32.9897 40.7771 32.9149 41.1681 32.6773C42.0555 32.1329 42.4062 30.9848 41.998 29.9518C41.8178 29.4975 41.3003 28.9608 40.2653 27.8894L35.5427 23M21.3632 13.4607C22.0915 12.1517 22.4557 11.5 23 11.5C23.5443 11.5 23.9085 12.1517 24.6368 13.4607L24.8247 13.7981C25.0317 14.1699 25.1352 14.3539 25.2962 14.4766C25.4591 14.5993 25.6603 14.6453 26.0628 14.7353L26.427 14.8197C27.8415 15.1397 28.5487 15.2988 28.7174 15.8393C28.8861 16.3818 28.4031 16.9453 27.439 18.0723L27.1898 18.3636C26.9157 18.6837 26.7777 18.8428 26.7164 19.0421C26.6551 19.2414 26.6762 19.4542 26.7164 19.8816L26.7547 20.2707C26.9004 21.7753 26.9732 22.5285 26.5343 22.862C26.0935 23.1955 25.4303 22.8908 24.1059 22.2813L23.7647 22.1241C23.3872 21.9516 23.1993 21.8653 23 21.8653C22.8007 21.8653 22.6128 21.9516 22.2352 22.1241L21.8941 22.2813C20.5697 22.8927 19.9065 23.1955 19.4657 22.862C19.0248 22.5285 19.0996 21.7753 19.2452 20.2707L19.2836 19.8816C19.3238 19.4542 19.3449 19.2414 19.2836 19.0421C19.2222 18.8447 19.0842 18.6837 18.8102 18.3636L18.561 18.0723C17.5969 16.9453 17.1139 16.3818 17.2826 15.8393C17.4512 15.2988 18.1585 15.1397 19.573 14.8197L19.9372 14.7353C20.3397 14.6453 20.5409 14.6012 20.7038 14.4766C20.8648 14.3539 20.9683 14.1699 21.1753 13.7981L21.3632 13.4607Z" stroke="black" stroke-width="4"/>
<path d="M10.5417 12.2608C9.39313 15.1298 9.2702 18.3073 10.1936 21.2564C11.1171 24.2055 13.0303 26.7454 15.6099 28.447C18.1896 30.1485 21.2776 30.9074 24.3521 30.5953C27.4266 30.2833 30.2991 28.9194 32.4843 26.7342C34.6695 24.5491 36.0333 21.6765 36.3454 18.602C36.6574 15.5275 35.8986 12.4395 34.197 9.85988C32.4955 7.28021 29.9556 5.36702 27.0064 4.44358C24.0573 3.52014 20.8799 3.64307 18.0109 4.7916" stroke="black" stroke-width="4" stroke-linecap="round"/>
</svg>
