<svg width="54" height="54" viewBox="0 0 54 54" fill="none" xmlns="http://www.w3.org/2000/svg">
<path fill-rule="evenodd" clip-rule="evenodd" d="M17.7278 2.81274H17.9843C18.6098 2.81274 19.026 2.81274 19.4355 2.84875C21.1905 3.00177 22.8713 3.64985 24.2483 4.72098C24.57 4.97076 24.8693 5.25204 25.308 5.6661L25.3643 5.7156L26.3543 6.64497C27.8888 8.08514 28.4355 8.5757 29.0633 8.90425C29.4345 9.09777 29.8305 9.25079 30.2445 9.3633C30.9488 9.55007 31.725 9.56358 33.8895 9.56358H34.6703C36.9495 9.56358 38.8103 9.56358 40.284 9.73685C41.8163 9.91687 43.1708 10.3084 44.298 11.2603C44.4848 11.4178 44.6648 11.5843 44.8335 11.7598C45.8685 12.84 46.3005 14.1519 46.4985 15.6326C46.6875 17.0367 46.6875 18.7987 46.6875 20.9207V25.4933C47.169 25.9794 47.5875 26.5262 47.9385 27.118C48.8385 28.6347 49.0208 30.3426 48.906 32.2936C48.7958 34.1929 48.3795 36.5624 47.8575 39.5305L47.8238 39.724C47.4503 41.8483 47.1488 43.5675 46.7663 44.9334C46.368 46.3466 45.8415 47.5438 44.9213 48.5451C44.487 49.0177 43.9988 49.4407 43.4678 49.8008C42.3383 50.5659 41.0895 50.8922 39.6563 51.0452C38.2838 51.1937 36.5873 51.1937 34.506 51.1937H19.494C17.4128 51.1937 15.7163 51.1937 14.3415 51.0452C12.9105 50.8922 11.6618 50.5659 10.5323 49.8008C9.99983 49.4403 9.51128 49.0189 9.0765 48.5451C8.1585 47.5415 7.632 46.3466 7.236 44.9334C6.8535 43.5675 6.54975 41.8506 6.17625 39.724L6.1425 39.5283C5.6205 36.5647 5.20425 34.1929 5.094 32.2914C4.97925 30.3426 5.1615 28.6347 6.0615 27.118C6.41025 26.5262 6.831 25.9794 7.3125 25.4933V12.6622C7.3125 11.357 7.3125 10.4569 7.47 9.66709C8.1675 6.20166 11.0318 3.58234 14.571 2.95451C15.381 2.81274 16.3148 2.81274 17.7278 2.81274ZM10.6875 23.6076C11.2275 23.468 11.799 23.3668 12.3975 23.2925C14.2313 23.0652 16.569 23.0652 19.4715 23.0652H34.5285C37.431 23.0652 39.7688 23.0652 41.6048 23.2925C42.201 23.3668 42.7725 23.468 43.3125 23.6076V21.0355C43.3125 18.7672 43.308 17.2348 43.155 16.0826C43.0065 14.98 42.7478 14.4624 42.3968 14.0979C42.3099 14.0068 42.2183 13.9204 42.1223 13.8391C41.7128 13.4948 41.1098 13.2338 39.8903 13.0898C38.6348 12.9412 36.9743 12.939 34.5645 12.939H33.669C31.806 12.939 30.5573 12.939 29.3715 12.624C28.7235 12.4509 28.0965 12.2071 27.5018 11.8971C26.415 11.33 25.5218 10.4907 24.2078 9.25979L24.0458 9.10677L23.0558 8.17741C22.7746 7.90181 22.4818 7.63829 22.1783 7.38756C21.2997 6.7118 20.2452 6.30324 19.1408 6.21066C18.731 6.18661 18.3204 6.1791 17.91 6.18816C16.2495 6.18816 15.6375 6.19491 15.1583 6.27817C12.8745 6.68322 11.1803 8.33718 10.7798 10.3332C10.6965 10.7472 10.6875 11.2828 10.6875 12.8535V23.6076ZM12.8115 26.6432C11.241 26.8367 10.431 27.1945 9.873 27.7098C9.51784 28.0398 9.21241 28.4195 8.96625 28.8372C8.56125 29.519 8.3655 30.4394 8.46225 32.0934C8.56125 33.7766 8.94151 35.9548 9.48376 39.0512C9.87751 41.2857 10.152 42.8362 10.485 44.0198C10.809 45.1697 11.1443 45.8043 11.565 46.2611C11.8238 46.5446 12.114 46.7944 12.4245 47.0059C12.924 47.3435 13.5675 47.5685 14.7038 47.69C15.8738 47.816 17.3903 47.8183 19.5863 47.8183H34.4138C36.6098 47.8183 38.1263 47.816 39.2963 47.69C40.4325 47.5685 41.0738 47.3435 41.5755 47.0059C41.886 46.7944 42.1763 46.5446 42.435 46.2634C42.8558 45.8043 43.1933 45.1697 43.515 44.0198C43.848 42.8362 44.1225 41.2857 44.5163 39.0512C45.0585 35.9548 45.4388 33.7766 45.5378 32.0934C45.6345 30.4394 45.4388 29.519 45.0338 28.8372C44.7877 28.4195 44.4822 28.0397 44.127 27.7098C43.569 27.1923 42.759 26.8367 41.1885 26.6432C39.5843 26.4429 37.458 26.4407 34.4138 26.4407H19.5863C16.542 26.4407 14.4158 26.4429 12.8115 26.6432ZM20.8125 38.2546C20.8125 37.807 20.9903 37.3777 21.3068 37.0612C21.6232 36.7447 22.0525 36.5669 22.5 36.5669H31.5C31.9476 36.5669 32.3768 36.7447 32.6932 37.0612C33.0097 37.3777 33.1875 37.807 33.1875 38.2546C33.1875 38.7022 33.0097 39.1315 32.6932 39.448C32.3768 39.7645 31.9476 39.9423 31.5 39.9423H22.5C22.0525 39.9423 21.6232 39.7645 21.3068 39.448C20.9903 39.1315 20.8125 38.7022 20.8125 38.2546Z" fill="black"/>
</svg>
