<svg width="40" height="40" viewBox="0 0 40 40" fill="none" xmlns="http://www.w3.org/2000/svg">
<path d="M5 4.58333C5 3.36776 5.48289 2.20197 6.34243 1.34243C7.20197 0.482886 8.36776 0 9.58333 0L33.75 0C34.0815 0 34.3995 0.131696 34.6339 0.366117C34.8683 0.600537 35 0.918479 35 1.25V35.4167C35 35.7482 34.8683 36.0661 34.6339 36.3006C34.3995 36.535 34.0815 36.6667 33.75 36.6667H23.75C23.4185 36.6667 23.1005 36.535 22.8661 36.3006C22.6317 36.0661 22.5 35.7482 22.5 35.4167C22.5 35.0851 22.6317 34.7672 22.8661 34.5328C23.1005 34.2984 23.4185 34.1667 23.75 34.1667H32.5V27.5H10C9.33696 27.5 8.70107 27.7634 8.23223 28.2322C7.76339 28.7011 7.5 29.337 7.5 30V31.25C7.5 32.4433 8.21667 33.4733 9.25 33.925C9.54359 34.0641 9.77149 34.312 9.88542 34.6163C9.99935 34.9205 9.99035 35.2571 9.86034 35.5549C9.73034 35.8526 9.48952 36.088 9.18893 36.2112C8.88833 36.3344 8.55158 36.3358 8.25 36.215C7.28395 35.7934 6.46189 35.0991 5.88461 34.2171C5.30733 33.3352 4.99989 32.3041 5 31.25V4.58333ZM32.5 2.5H9.58333C8.43333 2.5 7.5 3.43333 7.5 4.58333V25.6683C8.26025 25.23 9.12246 24.9995 10 25H32.5V2.5Z" fill="black"/>
<path d="M11.6667 30.4167C11.6667 30.3062 11.7106 30.2002 11.7887 30.122C11.8668 30.0439 11.9728 30 12.0833 30H20.4167C20.5272 30 20.6332 30.0439 20.7113 30.122C20.7894 30.2002 20.8333 30.3062 20.8333 30.4167V38.7667C20.833 38.8433 20.8114 38.9184 20.7711 38.9837C20.7308 39.0489 20.6733 39.1017 20.6049 39.1364C20.5365 39.171 20.4598 39.1861 20.3834 39.18C20.307 39.1739 20.2337 39.1468 20.1717 39.1017L16.495 36.4283C16.4238 36.3766 16.338 36.3487 16.25 36.3487C16.162 36.3487 16.0762 36.3766 16.005 36.4283L12.3283 39.1C12.2664 39.145 12.1933 39.1721 12.117 39.1783C12.0407 39.1845 11.9642 39.1695 11.8959 39.1351C11.8275 39.1007 11.7699 39.0481 11.7295 38.9831C11.6891 38.9181 11.6673 38.8432 11.6667 38.7667V30.4167Z" fill="black"/>
</svg>
