<svg width="25" height="25" viewBox="0 0 25 25" fill="none" xmlns="http://www.w3.org/2000/svg">
<g clip-path="url(#clip0_18_540)">
<path d="M24.6091 0.15346C24.9161 0.376674 25.0416 0.674293 24.9858 1.04632L21.4144 22.4749C21.3679 22.7446 21.2191 22.9539 20.9679 23.1027C20.8377 23.1771 20.6936 23.2143 20.5355 23.2143C20.4332 23.2143 20.3216 23.191 20.2006 23.1445L13.8809 20.5636L10.5048 24.6791C10.3374 24.893 10.1095 25 9.82119 25C9.70028 25 9.59797 24.9814 9.51427 24.9442C9.33755 24.8791 9.19572 24.7698 9.08876 24.6164C8.98181 24.4629 8.92833 24.2932 8.92833 24.1071V19.2383L20.9819 4.46429L6.0684 17.3689L0.557793 15.1088C0.213671 14.9786 0.027659 14.7228 -0.000242808 14.3415C-0.018844 13.9695 0.129966 13.6951 0.446186 13.5184L23.6605 0.125558C23.8 0.0418527 23.9488 0 24.1069 0C24.2929 0 24.4603 0.0511533 24.6091 0.15346Z" fill="white"/>
</g>
<defs>
<clipPath id="clip0_18_540">
<rect width="25" height="25" fill="white"/>
</clipPath>
</defs>
</svg>
